<svg width="12" height="15" viewBox="0 0 12 15" fill="none" xmlns="http://www.w3.org/2000/svg">
<g filter="url(#filter0_d_0_2779)">
<path fill-rule="evenodd" clip-rule="evenodd" d="M6.089 1.01496C2.692 1.21911 0 4.04522 0 7.50157C0 11.0905 2.90256 14 6.48305 14C7.79524 14 9.01638 13.6092 10.037 12.9374C6.62667 12.4682 4 9.54242 4 6.00315C4 4.05052 4.7995 2.28463 6.089 1.01496Z" fill="url(#paint0_radial_0_2779)"/>
</g>
<circle opacity="0.2" cx="11" cy="8.00317" r="1" fill="#D8D8D8"/>
<path fill-rule="evenodd" clip-rule="evenodd" d="M10 4L8.82443 4.61803L9.04894 3.30902L8.09789 2.38197L9.41221 2.19098L10 1L10.5878 2.19098L11.9021 2.38197L10.9511 3.30902L11.1756 4.61803L10 4Z" fill="url(#paint1_linear_0_2779)"/>
<defs>
<filter id="filter0_d_0_2779" x="-5" y="0.0149536" width="16.0371" height="18.985" filterUnits="userSpaceOnUse" color-interpolation-filters="sRGB">
<feFlood flood-opacity="0" result="BackgroundImageFix"/>
<feColorMatrix in="SourceAlpha" type="matrix" values="0 0 0 0 0 0 0 0 0 0 0 0 0 0 0 0 0 0 127 0" result="hardAlpha"/>
<feOffset dx="-2" dy="2"/>
<feGaussianBlur stdDeviation="1.5"/>
<feColorMatrix type="matrix" values="0 0 0 0 0.184314 0 0 0 0 0.188235 0 0 0 0 0.223529 0 0 0 1 0"/>
<feBlend mode="normal" in2="BackgroundImageFix" result="effect1_dropShadow_0_2779"/>
<feBlend mode="normal" in="SourceGraphic" in2="effect1_dropShadow_0_2779" result="shape"/>
</filter>
<radialGradient id="paint0_radial_0_2779" cx="0" cy="0" r="1" gradientUnits="userSpaceOnUse" gradientTransform="translate(5.31126 3.8229) rotate(90) scale(15.2232 11.7862)">
<stop stop-color="white"/>
<stop offset="1" stop-color="#DEE5EE"/>
</radialGradient>
<linearGradient id="paint1_linear_0_2779" x1="8.03968" y1="2.1059" x2="8.03968" y2="6.02655" gradientUnits="userSpaceOnUse">
<stop stop-color="white"/>
<stop offset="1" stop-color="#CECECE"/>
</linearGradient>
</defs>
</svg>
