<svg width="159" height="151" viewBox="0 0 159 151" fill="none" xmlns="http://www.w3.org/2000/svg">
<g filter="url(#filter0_f_0_2668)">
<circle cx="104" cy="55" r="21" fill="url(#paint0_radial_0_2668)"/>
</g>
<ellipse cx="103.814" cy="55.5696" rx="26.4407" ry="26.3998" fill="url(#paint1_linear_0_2668)"/>
<rect x="102.4" y="22" width="2.4" height="4.77987" rx="1.1952" fill="url(#paint2_linear_0_2668)"/>
<path fill-rule="evenodd" clip-rule="evenodd" d="M123.704 30.0399C124.128 29.5366 124.882 29.4727 125.387 29.8947C125.895 30.3192 125.963 31.0775 125.536 31.5837L123.991 33.4173C123.567 33.9206 122.814 33.9846 122.309 33.5626C121.801 33.1381 121.733 32.3798 122.159 31.8736L123.704 30.0399Z" fill="url(#paint3_linear_0_2668)"/>
<path fill-rule="evenodd" clip-rule="evenodd" d="M135.601 48.9254C136.251 48.8114 136.87 49.2449 136.985 49.8942C137.1 50.5448 136.665 51.1654 136.015 51.2797L133.642 51.6963C132.992 51.8103 132.373 51.3768 132.258 50.7276C132.143 50.077 132.578 49.4563 133.228 49.3421L135.601 48.9254Z" fill="url(#paint4_linear_0_2668)"/>
<path fill-rule="evenodd" clip-rule="evenodd" d="M132.519 71.004C133.092 71.3339 133.288 72.068 132.956 72.6406C132.626 73.2102 131.897 73.4063 131.326 73.0781L129.242 71.8796C128.668 71.5498 128.472 70.8156 128.804 70.2431C129.134 69.6735 129.863 69.4774 130.434 69.8055L132.519 71.004Z" fill="url(#paint5_linear_0_2668)"/>
<path fill-rule="evenodd" clip-rule="evenodd" d="M115.911 85.9456C116.138 86.5667 115.813 87.2556 115.192 87.481C114.572 87.7055 113.884 87.3878 113.658 86.769L112.837 84.5226C112.61 83.9014 112.934 83.2125 113.556 82.9872C114.175 82.7627 114.864 83.0803 115.09 83.6991L115.911 85.9456Z" fill="url(#paint6_linear_0_2668)"/>
<path fill-rule="evenodd" clip-rule="evenodd" d="M93.5424 86.769C93.3162 87.3878 92.628 87.7055 92.0086 87.481C91.3869 87.2556 91.0623 86.5667 91.2894 85.9456L92.1105 83.6991C92.3366 83.0803 93.0248 82.7627 93.6442 82.9872C94.266 83.2125 94.5905 83.9014 94.3635 84.5226L93.5424 86.769Z" fill="url(#paint7_linear_0_2668)"/>
<path fill-rule="evenodd" clip-rule="evenodd" d="M75.8741 73.0781C75.3033 73.4063 74.5741 73.2101 74.2439 72.6406C73.9119 72.068 74.1079 71.3339 74.6816 71.004L76.7662 69.8055C77.337 69.4774 78.0662 69.6735 78.3964 70.2431C78.7284 70.8156 78.5324 71.5498 77.9587 71.8796L75.8741 73.0781Z" fill="url(#paint8_linear_0_2668)"/>
<path fill-rule="evenodd" clip-rule="evenodd" d="M71.1856 51.2797C70.5349 51.1654 70.1003 50.5448 70.2155 49.8942C70.3305 49.2449 70.9496 48.8114 71.599 48.9255L73.9719 49.3421C74.6226 49.4564 75.0572 50.077 74.942 50.7276C74.827 51.3769 74.2079 51.8104 73.5585 51.6963L71.1856 51.2797Z" fill="url(#paint9_linear_0_2668)"/>
<path fill-rule="evenodd" clip-rule="evenodd" d="M81.664 31.5837C81.2374 31.0775 81.3057 30.3192 81.8137 29.8947C82.3187 29.4727 83.072 29.5366 83.4961 30.0399L85.0412 31.8736C85.4678 32.3798 85.3995 33.1381 84.8915 33.5626C84.3864 33.9846 83.6331 33.9206 83.209 33.4173L81.664 31.5837Z" fill="url(#paint10_linear_0_2668)"/>
<g filter="url(#filter1_d_0_2668)">
<path fill-rule="evenodd" clip-rule="evenodd" d="M117.034 117H63.923C63.9148 117 63.9065 117 63.8983 117C63.8901 117 63.8818 117 63.8736 117H62.1186V116.96C41.4618 116.038 25 99.1335 25 78.4156C25 57.1061 42.4154 39.8313 63.8983 39.8313C81.1172 39.8313 95.723 50.9291 100.843 66.3072C105.412 63.0623 111 61.1542 117.034 61.1542C132.479 61.1542 145 73.6557 145 89.0771C145 104.159 133.025 116.447 118.051 116.982V117H117.034Z" fill="url(#paint11_radial_0_2668)"/>
</g>
<g filter="url(#filter2_i_0_2668)">
<path fill-rule="evenodd" clip-rule="evenodd" d="M117.034 117H63.923C63.9148 117 63.9065 117 63.8983 117C63.8901 117 63.8818 117 63.8736 117H62.1186V116.96C41.4618 116.038 25 99.1335 25 78.4156C25 57.1061 42.4154 39.8313 63.8983 39.8313C81.1172 39.8313 95.723 50.9291 100.843 66.3072C105.412 63.0623 111 61.1542 117.034 61.1542C132.479 61.1542 145 73.6557 145 89.0771C145 104.159 133.025 116.447 118.051 116.982V117H117.034Z" fill="url(#paint12_radial_0_2668)"/>
</g>
<defs>
<filter id="filter0_f_0_2668" x="49.9604" y="0.960438" width="108.079" height="108.079" filterUnits="userSpaceOnUse" color-interpolation-filters="sRGB">
<feFlood flood-opacity="0" result="BackgroundImageFix"/>
<feBlend mode="normal" in="SourceGraphic" in2="BackgroundImageFix" result="shape"/>
<feGaussianBlur stdDeviation="16.5198" result="effect1_foregroundBlur_0_2668"/>
</filter>
<filter id="filter1_d_0_2668" x="-5" y="33.8313" width="160" height="117.169" filterUnits="userSpaceOnUse" color-interpolation-filters="sRGB">
<feFlood flood-opacity="0" result="BackgroundImageFix"/>
<feColorMatrix in="SourceAlpha" type="matrix" values="0 0 0 0 0 0 0 0 0 0 0 0 0 0 0 0 0 0 127 0" result="hardAlpha"/>
<feOffset dx="-10" dy="14"/>
<feGaussianBlur stdDeviation="10"/>
<feColorMatrix type="matrix" values="0 0 0 0 0.184314 0 0 0 0 0.188235 0 0 0 0 0.223529 0 0 0 0.4 0"/>
<feBlend mode="normal" in2="BackgroundImageFix" result="effect1_dropShadow_0_2668"/>
<feBlend mode="normal" in="SourceGraphic" in2="effect1_dropShadow_0_2668" result="shape"/>
</filter>
<filter id="filter2_i_0_2668" x="25" y="39.8313" width="120" height="79.1687" filterUnits="userSpaceOnUse" color-interpolation-filters="sRGB">
<feFlood flood-opacity="0" result="BackgroundImageFix"/>
<feBlend mode="normal" in="SourceGraphic" in2="BackgroundImageFix" result="shape"/>
<feColorMatrix in="SourceAlpha" type="matrix" values="0 0 0 0 0 0 0 0 0 0 0 0 0 0 0 0 0 0 127 0" result="hardAlpha"/>
<feOffset dy="2"/>
<feGaussianBlur stdDeviation="1"/>
<feComposite in2="hardAlpha" operator="arithmetic" k2="-1" k3="1"/>
<feColorMatrix type="matrix" values="0 0 0 0 1 0 0 0 0 1 0 0 0 0 1 0 0 0 1 0"/>
<feBlend mode="normal" in2="shape" result="effect1_innerShadow_0_2668"/>
</filter>
<radialGradient id="paint0_radial_0_2668" cx="0" cy="0" r="1" gradientUnits="userSpaceOnUse" gradientTransform="translate(112.762 34) rotate(112.114) scale(31.895 56.1684)">
<stop stop-color="#FFC100"/>
<stop offset="1" stop-color="#FF3100"/>
</radialGradient>
<linearGradient id="paint1_linear_0_2668" x1="89.1875" y1="31.2979" x2="89.1875" y2="60.5051" gradientUnits="userSpaceOnUse">
<stop stop-color="#FFC100"/>
<stop offset="1" stop-color="#FF8E00"/>
</linearGradient>
<linearGradient id="paint2_linear_0_2668" x1="102.936" y1="22.1927" x2="102.936" y2="24.8367" gradientUnits="userSpaceOnUse">
<stop stop-color="#FFC100"/>
<stop offset="1" stop-color="#FF8E00"/>
</linearGradient>
<linearGradient id="paint3_linear_0_2668" x1="124.754" y1="29.613" x2="123.05" y2="31.6442" gradientUnits="userSpaceOnUse">
<stop stop-color="#FFC100"/>
<stop offset="1" stop-color="#FF8E00"/>
</linearGradient>
<linearGradient id="paint4_linear_0_2668" x1="136.68" y1="49.2756" x2="134.065" y2="49.7368" gradientUnits="userSpaceOnUse">
<stop stop-color="#FFC100"/>
<stop offset="1" stop-color="#FF8E00"/>
</linearGradient>
<linearGradient id="paint5_linear_0_2668" x1="133.123" y1="71.9698" x2="130.824" y2="70.6424" gradientUnits="userSpaceOnUse">
<stop stop-color="#FFC100"/>
<stop offset="1" stop-color="#FF8E00"/>
</linearGradient>
<linearGradient id="paint6_linear_0_2668" x1="115.751" y1="87.0737" x2="114.846" y2="84.5862" gradientUnits="userSpaceOnUse">
<stop stop-color="#FFC100"/>
<stop offset="1" stop-color="#FF8E00"/>
</linearGradient>
<linearGradient id="paint7_linear_0_2668" x1="92.6992" y1="87.5288" x2="93.6046" y2="85.0413" gradientUnits="userSpaceOnUse">
<stop stop-color="#FFC100"/>
<stop offset="1" stop-color="#FF8E00"/>
</linearGradient>
<linearGradient id="paint8_linear_0_2668" x1="74.7416" y1="73.1201" x2="77.0407" y2="71.7927" gradientUnits="userSpaceOnUse">
<stop stop-color="#FFC100"/>
<stop offset="1" stop-color="#FF8E00"/>
</linearGradient>
<linearGradient id="paint9_linear_0_2668" x1="70.2903" y1="50.5796" x2="72.9058" y2="51.0408" gradientUnits="userSpaceOnUse">
<stop stop-color="#FFC100"/>
<stop offset="1" stop-color="#FF8E00"/>
</linearGradient>
<linearGradient id="paint10_linear_0_2668" x1="81.4265" y1="30.4685" x2="83.1308" y2="32.4996" gradientUnits="userSpaceOnUse">
<stop stop-color="#FFC100"/>
<stop offset="1" stop-color="#FF8E00"/>
</linearGradient>
<radialGradient id="paint11_radial_0_2668" cx="0" cy="0" r="1" gradientUnits="userSpaceOnUse" gradientTransform="translate(88.4108 56.5049) rotate(90) scale(90.4901 140.715)">
<stop stop-color="white"/>
<stop offset="1" stop-color="#DEE5EE"/>
</radialGradient>
<radialGradient id="paint12_radial_0_2668" cx="0" cy="0" r="1" gradientUnits="userSpaceOnUse" gradientTransform="translate(88.4108 56.5049) rotate(90) scale(90.4901 140.715)">
<stop stop-color="white" stop-opacity="0.103027"/>
<stop offset="1" stop-color="#DEE5EE"/>
</radialGradient>
</defs>
</svg>
